<svg width="16" height="16" viewBox="0 0 16 16" fill="none" xmlns="http://www.w3.org/2000/svg">
<g clip-path="url(#clip0_542720_321)">
<path d="M15.9961 15.9999V15.9993H16.0001V10.1313C16.0001 7.26061 15.3821 5.04928 12.0261 5.04928C10.4128 5.04928 9.33009 5.93462 8.88809 6.77395H8.84143V5.31728H5.65942V15.9993H8.97276V10.7099C8.97276 9.31728 9.23676 7.97062 10.9614 7.97062C12.6608 7.97062 12.6861 9.55995 12.6861 10.7993V15.9999H15.9961Z" fill="#F4F4FD"/>
<path d="M0.263916 5.31788H3.58125V15.9999H0.263916V5.31788Z" fill="#F4F4FD"/>
<path d="M1.92133 -8.7738e-05C0.860667 -8.7738e-05 0 0.860579 0 1.92125C0 2.98191 0.860667 3.86058 1.92133 3.86058C2.982 3.86058 3.84267 2.98191 3.84267 1.92125C3.842 0.860579 2.98133 -8.7738e-05 1.92133 -8.7738e-05V-8.7738e-05Z" fill="#F4F4FD"/>
</g>
<defs>
<clipPath id="clip0_542720_321">
<rect width="16" height="16" fill="white"/>
</clipPath>
</defs>
</svg>
